<svg width="256" height="256" xmlns:xlink="http://www.w3.org/1999/xlink" xmlns="http://www.w3.org/2000/svg">
<defs>
<linearGradient id="basea">
<stop style="stop-color:#a53d6b;stop-opacity:1" offset="0"/>
<stop style="stop-color:#652945;stop-opacity:1" offset="1"/>
</linearGradient>
<linearGradient xlink:href="#basea" id="baseb" gradientUnits="userSpaceOnUse" gradientTransform="translate(-31.05 -31.05) scale(2.34717)" x1="48.338" y1="13.229" x2="78.104" y2="122.237"/>
</defs>
<path style="font-variation-settings:normal;display:inline;fill:url(#baseb);fill-opacity:1;stroke-width:.559665;stroke-linecap:square;stroke-linejoin:miter;stroke-miterlimit:4;stroke-dasharray:none;stroke-dashoffset:0;stroke-opacity:.289854;paint-order:stroke fill markers;stop-color:#000" d="M62.136 0c-17.2 0-32.86 2.447-46.274 15.862C2.447 29.276 0 44.912 0 62.136v131.59c0 17.223 2.447 32.86 15.862 46.274 13.414 13.414 29.074 15.861 46.274 15.861h131.589c17.2 0 32.86-2.446 46.275-15.861 13.414-13.414 15.861-29.051 15.861-46.275V62.136c0-17.224-2.446-32.86-15.861-46.275C226.586 2.447 210.925 0 193.725 0H62.136z"/>
<g style="font-variation-settings:normal;display:inline;opacity:1;vector-effect:none;fill:#f0cece;fill-opacity:1;stroke-width:.0023613px;stroke-linecap:butt;stroke-linejoin:miter;stroke-miterlimit:4;stroke-dasharray:none;stroke-dashoffset:0;stroke-opacity:1;-inkscape-stroke:none;paint-order:stroke fill markers;stop-color:#000;stop-opacity:1">
<path style="font-variation-settings:normal;vector-effect:none;fill:#f0cece;fill-opacity:1;stroke-width:.0023613px;stroke-linecap:butt;stroke-linejoin:miter;stroke-miterlimit:4;stroke-dasharray:none;stroke-dashoffset:0;stroke-opacity:1;-inkscape-stroke:none;paint-order:stroke fill markers;stop-color:#000;stop-opacity:1" d="M91.87 20.03c-.66.699-2.663 1.241-3.263.641-.6-.6-.051-2.596.641-3.262.595-.573 1.285-.746 2.09-.423.338.136.097.665.159.796.128.068.634-.223.792.151.333.792.145 1.501-.419 2.098zm-2.776 6c-.868-.411-2.003-2.148-1.618-2.904.386-.756 2.453-.852 3.301-.4.73.39 1.107.992 1.048 1.858-.025.363-.602.297-.707.397-.026.142.407.534.1.8-.65.562-1.383.602-2.124.25zm-4.912.059c.124-.953 1.425-2.57 2.263-2.436.838.132 1.568 2.07 1.4 3.016-.145.813-.6 1.358-1.443 1.57-.353.089-.469-.48-.596-.55-.143.02-.382.553-.73.343-.735-.445-1-1.13-.894-1.943zm-1.57-4.664c.945-.175 2.882.568 3.013 1.407.13.838-1.49 2.127-2.442 2.257-.819.111-1.477-.156-1.937-.892-.193-.31.314-.594.341-.736-.063-.13-.644-.195-.55-.59.198-.836.768-1.297 1.575-1.446zM86.56 18.5c.458.846.35 2.918-.408 3.3-.757.384-2.483-.759-2.9-1.624-.36-.744-.31-1.453.249-2.118.234-.278.662.115.805.097.105-.1-.014-.672.39-.705.858-.07 1.473.33 1.864 1.05z" transform="matrix(18.20215 0 0 18.20817 -1450.858 -282.348)"/>
</g>
</svg>
