<?xml version="1.0" encoding="UTF-8" standalone="no"?>
<!-- Created with Inkscape (http://www.inkscape.org/) -->

<svg
   width="64"
   height="64"
   viewBox="0 0 16.933333 16.933333"
   version="1.1"
   id="svg1"
   inkscape:version="1.4 (e7c3feb100, 2024-10-09)"
   sodipodi:docname="favicon.svg"
   xmlns:inkscape="http://www.inkscape.org/namespaces/inkscape"
   xmlns:sodipodi="http://sodipodi.sourceforge.net/DTD/sodipodi-0.dtd"
   xmlns:xlink="http://www.w3.org/1999/xlink"
   xmlns="http://www.w3.org/2000/svg"
   xmlns:svg="http://www.w3.org/2000/svg">
  <sodipodi:namedview
     id="namedview1"
     pagecolor="#ffffff"
     bordercolor="#000000"
     borderopacity="0.25"
     inkscape:showpageshadow="2"
     inkscape:pageopacity="0.0"
     inkscape:pagecheckerboard="0"
     inkscape:deskcolor="#d1d1d1"
     inkscape:document-units="mm"
     inkscape:zoom="24.02798"
     inkscape:cx="10.092401"
     inkscape:cy="41.576529"
     inkscape:window-width="3840"
     inkscape:window-height="2123"
     inkscape:window-x="0"
     inkscape:window-y="0"
     inkscape:window-maximized="1"
     inkscape:current-layer="layer1"
     showgrid="true">
    <inkscape:grid
       id="grid4"
       units="px"
       originx="0"
       originy="0"
       spacingx="1.0583333"
       spacingy="1.0583333"
       empcolor="#0099e5"
       empopacity="0.30196078"
       color="#0099e5"
       opacity="0.14901961"
       empspacing="4"
       enabled="true"
       visible="true" />
  </sodipodi:namedview>
  <defs
     id="defs1">
    <linearGradient
       inkscape:collect="always"
       id="linearGradient9"
       inkscape:label="Abstract">
      <stop
         style="stop-color:#bc3249;stop-opacity:1;"
         offset="0.16798516"
         id="stop4" />
      <stop
         style="stop-color:#de9a9e;stop-opacity:1;"
         offset="0.37908679"
         id="stop10" />
      <stop
         style="stop-color:#e9bab9;stop-opacity:1;"
         offset="0.57034206"
         id="stop7" />
      <stop
         style="stop-color:#e5b2af;stop-opacity:1;"
         offset="0.82473576"
         id="stop8" />
      <stop
         style="stop-color:#d98f81;stop-opacity:1;"
         offset="1"
         id="stop9" />
    </linearGradient>
    <linearGradient
       inkscape:collect="always"
       id="linearGradient33451">
      <stop
         style="stop-color:#a53d6b;stop-opacity:1;"
         offset="0"
         id="stop33447" />
      <stop
         style="stop-color:#652945;stop-opacity:1;"
         offset="1"
         id="stop33449" />
    </linearGradient>
    <clipPath
       clipPathUnits="userSpaceOnUse"
       id="clipPath326">
      <path
         id="path327"
         style="font-variation-settings:normal;display:inline;opacity:0.42282;vector-effect:none;fill:#000000;fill-opacity:1;stroke-width:0.0108888px;stroke-linecap:butt;stroke-linejoin:miter;stroke-miterlimit:4;stroke-dasharray:none;stroke-dashoffset:0;stroke-opacity:1;-inkscape-stroke:none;paint-order:stroke fill markers;stop-color:#000000;stop-opacity:1"
         d="m 182.1845,-132.0441 c 0.3126,0.31262 0.51692,1.43566 -0.4048,2.17104 -0.97918,0.78123 -2.12456,0.88525 -2.84202,0.57299 -0.37519,-0.75156 -0.13838,-1.98697 0.56061,-2.85441 0.73982,-0.91812 1.8584,-0.71741 2.17103,-0.40478 0.10003,0.15123 0.1191,0.3222 -0.0156,0.53078 0.20854,-0.13468 0.37963,-0.11538 0.53079,-0.0156 z"
         inkscape:transform-center-x="-1.7807583"
         inkscape:transform-center-y="-1.7921646"
         sodipodi:nodetypes="cscscccc" />
    </clipPath>
    <linearGradient
       inkscape:collect="always"
       id="linearGradient178"
       inkscape:label="Abstract Petal Overlay">
      <stop
         style="stop-color:#d88387;stop-opacity:1;"
         offset="0"
         id="stop175" />
      <stop
         style="stop-color:#eecccc;stop-opacity:0;"
         offset="0.38205749"
         id="stop176" />
      <stop
         style="stop-color:#f2dad8;stop-opacity:0;"
         offset="0.67638856"
         id="stop177" />
      <stop
         style="stop-color:#dd9c8f;stop-opacity:1;"
         offset="1"
         id="stop178" />
    </linearGradient>
    <clipPath
       clipPathUnits="userSpaceOnUse"
       id="clipPath327">
      <path
         id="path328"
         style="font-variation-settings:normal;display:inline;opacity:0.42282;vector-effect:none;fill:#000000;fill-opacity:1;stroke-width:0.0108888px;stroke-linecap:butt;stroke-linejoin:miter;stroke-miterlimit:4;stroke-dasharray:none;stroke-dashoffset:0;stroke-opacity:1;-inkscape-stroke:none;paint-order:stroke fill markers;stop-color:#000000;stop-opacity:1"
         d="m 182.18449,-132.0441 c 0.31263,0.3126 0.51691,1.43567 -0.4048,2.17104 -0.97917,0.78123 -2.12455,0.88525 -2.84201,0.57298 -0.3752,-0.75155 -0.13838,-1.98696 0.56061,-2.8544 0.73981,-0.91813 1.8584,-0.71741 2.17103,-0.40478 0.10006,0.15121 0.11913,0.32219 -0.0156,0.53078 0.20853,-0.13471 0.37954,-0.11565 0.53079,-0.0156 z"
         inkscape:transform-center-x="-1.7807583"
         inkscape:transform-center-y="-1.7921646"
         sodipodi:nodetypes="cscscccc" />
    </clipPath>
    <clipPath
       clipPathUnits="userSpaceOnUse"
       id="clipPath328">
      <path
         id="path329"
         style="font-variation-settings:normal;display:inline;opacity:0.42282;vector-effect:none;fill:#000000;fill-opacity:1;stroke-width:0.0108888px;stroke-linecap:butt;stroke-linejoin:miter;stroke-miterlimit:4;stroke-dasharray:none;stroke-dashoffset:0;stroke-opacity:1;-inkscape-stroke:none;paint-order:stroke fill markers;stop-color:#000000;stop-opacity:1"
         d="m 182.18449,-132.0441 c 0.31264,0.3126 0.51691,1.43567 -0.40479,2.17104 -0.97919,0.78121 -2.12456,0.88525 -2.84201,0.57299 -0.3752,-0.75156 -0.13839,-1.98697 0.5606,-2.85441 0.73982,-0.91811 1.8584,-0.71741 2.17103,-0.40478 0.1,0.1513 0.11915,0.32218 -0.0156,0.53078 0.20852,-0.13472 0.37954,-0.11565 0.53079,-0.0156 z"
         inkscape:transform-center-x="-1.7807583"
         inkscape:transform-center-y="-1.7921646"
         sodipodi:nodetypes="cscscccc" />
    </clipPath>
    <clipPath
       clipPathUnits="userSpaceOnUse"
       id="clipPath329">
      <path
         id="path330"
         style="font-variation-settings:normal;display:inline;opacity:0.42282;vector-effect:none;fill:#000000;fill-opacity:1;stroke-width:0.0108888px;stroke-linecap:butt;stroke-linejoin:miter;stroke-miterlimit:4;stroke-dasharray:none;stroke-dashoffset:0;stroke-opacity:1;-inkscape-stroke:none;paint-order:stroke fill markers;stop-color:#000000;stop-opacity:1"
         d="m 182.1845,-132.0441 c 0.3126,0.31262 0.51692,1.43567 -0.4048,2.17104 -0.97918,0.78123 -2.12456,0.88525 -2.84202,0.57299 -0.37518,-0.75156 -0.13838,-1.98696 0.56061,-2.85441 0.73982,-0.91812 1.8584,-0.71741 2.17103,-0.40478 0.1,0.15125 0.11911,0.3222 -0.0156,0.53078 0.20853,-0.13472 0.37966,-0.1153 0.53079,-0.0156 z"
         inkscape:transform-center-x="-1.7807583"
         inkscape:transform-center-y="-1.7921646"
         sodipodi:nodetypes="cscscccc" />
    </clipPath>
    <clipPath
       clipPathUnits="userSpaceOnUse"
       id="clipPath24">
      <circle
         style="font-variation-settings:normal;display:inline;vector-effect:none;fill:url(#linearGradient178);fill-opacity:1;stroke-width:0.0251206;stroke-linecap:square;stroke-linejoin:miter;stroke-miterlimit:4;stroke-dasharray:none;stroke-dashoffset:0;stroke-opacity:0.289854;-inkscape-stroke:none;paint-order:stroke fill markers;stop-color:#000000"
         id="circle24"
         cx="108.79951"
         cy="-109.64893"
         r="5.7421718"
         transform="matrix(0.99815595,-0.06070172,-0.06070172,0.99815595,0,0)" />
    </clipPath>
    <linearGradient
       inkscape:collect="always"
       xlink:href="#linearGradient33451"
       id="linearGradient25"
       gradientUnits="userSpaceOnUse"
       gradientTransform="matrix(0.10535294,0,0,0.10535294,101.6636,-116.78485)"
       x1="48.337929"
       y1="13.229165"
       x2="78.103554"
       y2="122.2375" />
    <clipPath
       clipPathUnits="userSpaceOnUse"
       id="clipPath325">
      <path
         id="path326"
         style="font-variation-settings:normal;display:inline;opacity:0.42282;vector-effect:none;fill:#000000;fill-opacity:1;stroke-width:0.0108888px;stroke-linecap:butt;stroke-linejoin:miter;stroke-miterlimit:4;stroke-dasharray:none;stroke-dashoffset:0;stroke-opacity:1;-inkscape-stroke:none;paint-order:stroke fill markers;stop-color:#000000;stop-opacity:1"
         d="m 182.18449,-132.0441 c 0.31261,0.31262 0.51691,1.43567 -0.40479,2.17104 -0.97918,0.78123 -2.12456,0.88525 -2.84202,0.57299 -0.37519,-0.75156 -0.13838,-1.98697 0.56061,-2.85441 0.73982,-0.91812 1.8584,-0.71741 2.17103,-0.40478 0.10004,0.15123 0.11913,0.32219 -0.0156,0.53078 0.20853,-0.13471 0.37954,-0.11565 0.53079,-0.0156 z"
         inkscape:transform-center-x="-1.7807583"
         inkscape:transform-center-y="-1.7921646"
         sodipodi:nodetypes="cscscccc" />
    </clipPath>
    <linearGradient
       inkscape:collect="always"
       id="linearGradient72"
       inkscape:label="Abstract">
      <stop
         style="stop-color:#d46678;stop-opacity:1;"
         offset="0.06082589"
         id="stop65" />
      <stop
         style="stop-color:#e6adb3;stop-opacity:1;"
         offset="0.25328258"
         id="stop74" />
      <stop
         style="stop-color:#e9b7bb;stop-opacity:1;"
         offset="0.33669901"
         id="stop66" />
      <stop
         style="stop-color:#f1d4d3;stop-opacity:1;"
         offset="0.57034206"
         id="stop71" />
      <stop
         style="stop-color:#eeccca;stop-opacity:1;"
         offset="0.75364363"
         id="stop73" />
      <stop
         style="stop-color:#e4afa5;stop-opacity:1;"
         offset="1"
         id="stop72" />
    </linearGradient>
    <radialGradient
       inkscape:collect="always"
       xlink:href="#linearGradient72"
       id="radialGradient1"
       cx="-65.538086"
       cy="1.9602547"
       fx="-65.538086"
       fy="1.9602547"
       r="0.79762924"
       gradientTransform="matrix(3.2395123,0,0,3.238405,146.77335,-4.3259021)"
       gradientUnits="userSpaceOnUse" />
    <radialGradient
       inkscape:collect="always"
       xlink:href="#linearGradient72"
       id="radialGradient6"
       cx="-65.538086"
       cy="1.9602547"
       fx="-65.538086"
       fy="1.9602547"
       r="0.79762924"
       gradientTransform="matrix(3.2395123,0,0,3.238405,146.77335,-4.3259021)"
       gradientUnits="userSpaceOnUse" />
    <radialGradient
       inkscape:collect="always"
       xlink:href="#linearGradient72"
       id="radialGradient12"
       cx="-65.538086"
       cy="1.9602547"
       fx="-65.538086"
       fy="1.9602547"
       r="0.79762924"
       gradientTransform="matrix(3.2395123,0,0,3.238405,146.77335,-4.3259021)"
       gradientUnits="userSpaceOnUse" />
    <radialGradient
       inkscape:collect="always"
       xlink:href="#linearGradient9"
       id="radialGradient26-9"
       gradientUnits="userSpaceOnUse"
       gradientTransform="matrix(12.843577,0,0,12.839187,849.8724,-17.381511)"
       cx="-65.538086"
       cy="1.9602547"
       fx="-65.538086"
       fy="1.9602547"
       r="0.79762924" />
    <radialGradient
       inkscape:collect="always"
       xlink:href="#linearGradient9"
       id="radialGradient26-4"
       gradientUnits="userSpaceOnUse"
       gradientTransform="matrix(12.843577,0,0,12.839187,849.8724,-17.381511)"
       cx="-65.538086"
       cy="1.9602547"
       fx="-65.538086"
       fy="1.9602547"
       r="0.79762924" />
    <radialGradient
       inkscape:collect="always"
       xlink:href="#linearGradient9"
       id="radialGradient26-6"
       gradientUnits="userSpaceOnUse"
       gradientTransform="matrix(12.843577,0,0,12.839187,849.8724,-17.381511)"
       cx="-65.538086"
       cy="1.9602547"
       fx="-65.538086"
       fy="1.9602547"
       r="0.79762924" />
    <linearGradient
       inkscape:collect="always"
       id="linearGradient108"
       inkscape:label="Abstract">
      <stop
         style="stop-color:#94314b;stop-opacity:1;"
         offset="0.13323101"
         id="stop104" />
      <stop
         style="stop-color:#dcadaf;stop-opacity:1;"
         offset="0.38991106"
         id="stop105" />
      <stop
         style="stop-color:#eac0c0;stop-opacity:1;"
         offset="0.49903166"
         id="stop106" />
      <stop
         style="stop-color:#e7b3b6;stop-opacity:1;"
         offset="0.67516577"
         id="stop107" />
      <stop
         style="stop-color:#c94961;stop-opacity:1;"
         offset="1"
         id="stop108" />
    </linearGradient>
    <radialGradient
       inkscape:collect="always"
       xlink:href="#linearGradient108"
       id="radialGradient108-9"
       gradientUnits="userSpaceOnUse"
       gradientTransform="matrix(-10.874085,7.479911,-7.4773555,-10.870369,-712.23292,517.44573)"
       cx="-65.573883"
       cy="1.8919935"
       fx="-65.573883"
       fy="1.8919935"
       r="0.79762924" />
    <radialGradient
       inkscape:collect="always"
       xlink:href="#linearGradient108"
       id="radialGradient2-9"
       gradientUnits="userSpaceOnUse"
       gradientTransform="matrix(2.7145553,83.930961,-66.687443,2.1569371,-797.41076,6361.3096)"
       cx="-73.326591"
       cy="-18.266932"
       fx="-73.326591"
       fy="-18.266932"
       r="0.79762924" />
    <radialGradient
       inkscape:collect="always"
       xlink:href="#linearGradient108"
       id="radialGradient3-3"
       gradientUnits="userSpaceOnUse"
       gradientTransform="matrix(45.89609,45.895842,-45.895979,45.896313,2743.738,4357.1528)"
       cx="-73.354774"
       cy="-17.967808"
       fx="-73.354774"
       fy="-17.967808"
       r="0.79762924" />
    <radialGradient
       inkscape:collect="always"
       xlink:href="#linearGradient108"
       id="radialGradient3-5"
       gradientUnits="userSpaceOnUse"
       gradientTransform="matrix(45.89609,45.895842,-45.895979,45.896313,2743.738,4357.1528)"
       cx="-73.354774"
       cy="-17.967808"
       fx="-73.354774"
       fy="-17.967808"
       r="0.79762924" />
    <radialGradient
       inkscape:collect="always"
       xlink:href="#linearGradient108"
       id="radialGradient3-4"
       gradientUnits="userSpaceOnUse"
       gradientTransform="matrix(45.89609,45.895842,-45.895979,45.896313,2743.738,4357.1528)"
       cx="-73.354774"
       cy="-17.967808"
       fx="-73.354774"
       fy="-17.967808"
       r="0.79762924" />
    <linearGradient
       inkscape:collect="always"
       xlink:href="#linearGradient33451"
       id="linearGradient336"
       gradientUnits="userSpaceOnUse"
       gradientTransform="matrix(0.15533967,0,0,0.15533967,-2.0549892,-2.0550036)"
       x1="48.337929"
       y1="13.229165"
       x2="78.103554"
       y2="122.2375" />
  </defs>
  <g
     inkscape:label="Layer 1"
     inkscape:groupmode="layer"
     id="layer1">
    <path
       id="path336"
       style="font-variation-settings:normal;display:inline;fill:url(#linearGradient336);fill-opacity:1;stroke-width:0.0370395;stroke-linecap:square;stroke-linejoin:miter;stroke-miterlimit:4;stroke-dasharray:none;stroke-dashoffset:0;stroke-opacity:0.289854;paint-order:stroke fill markers;stop-color:#000000"
       d="M 4.1122882,1.8584728e-6 C 2.9739246,7.020799e-7 1.9375075,0.16196047 1.0497573,1.0497406 0.16197485,1.9375093 5.5965209e-8,2.9723734 5.5965202e-8,4.11229 c -1.156392902e-6,2.902915 0,5.8058255 7e-15,8.708769 C 1.2123581e-6,13.960945 0.16194363,14.99583 1.0497562,15.883594 c 0.8877513,0.887765 1.9241684,1.049739 3.062532,1.049737 2.9029116,3e-6 5.8058289,4e-6 8.7087378,4e-6 1.138365,0 2.1748,-0.161943 3.06255,-1.049741 0.887767,-0.887765 1.049755,-1.922649 1.049756,-3.062535 1e-6,-2.9029401 1e-6,-5.805854 -1e-6,-8.7087702 0,-1.1399143 -0.16194,-2.1747807 -1.049755,-3.0625493 C 14.995824,0.16197434 13.95939,-4.54313e-7 12.821028,-4.54313e-7 c -2.9029132,1.1563929e-6 -5.8058282,0 -8.7087398,2.3127858e-6 z"
       sodipodi:nodetypes="ccccsccsccscc" />
    <g
       id="g36"
       transform="matrix(1.2966206,0,0,1.2970212,-104.00243,-20.763559)"
       style="display:inline;fill:#f0cece;fill-opacity:1">
      <path
         id="path32"
         style="font-variation-settings:normal;vector-effect:none;fill:#f0cece;fill-opacity:1;stroke-width:0.0139991px;stroke-linecap:butt;stroke-linejoin:miter;stroke-miterlimit:4;stroke-dasharray:none;stroke-dashoffset:0;stroke-opacity:1;-inkscape-stroke:none;paint-order:stroke fill markers;stop-color:#000000"
         d="m 91.870056,20.030587 c -0.660269,0.698453 -2.662679,1.240713 -3.262706,0.640686 -0.600027,-0.600027 -0.05172,-2.596098 0.640688,-3.262704 0.59511,-0.572934 1.284467,-0.745891 2.09004,-0.422224 0.337743,0.1357 0.09683,0.664619 0.158856,0.795344 0.127798,0.06788 0.634521,-0.22275 0.791991,0.151445 0.33337,0.79221 0.14476,1.501271 -0.418869,2.097453 z"
         sodipodi:nodetypes="szsscss" />
      <path
         id="path33"
         style="font-variation-settings:normal;vector-effect:none;fill:#f0cece;fill-opacity:1;stroke-width:0.0139991px;stroke-linecap:butt;stroke-linejoin:miter;stroke-miterlimit:4;stroke-dasharray:none;stroke-dashoffset:0;stroke-opacity:1;-inkscape-stroke:none;paint-order:stroke fill markers;stop-color:#000000"
         d="m 89.094019,26.030714 c -0.868317,-0.412088 -2.002879,-2.148885 -1.617665,-2.904977 0.385178,-0.756111 2.453023,-0.851516 3.300986,-0.39902 0.728785,0.388949 1.106341,0.991069 1.047483,1.857234 -0.02468,0.363148 -0.602158,0.297492 -0.707314,0.396882 -0.02506,0.142519 0.407944,0.534617 0.100734,0.800024 -0.650399,0.561883 -1.383038,0.601643 -2.124224,0.249857 z"
         sodipodi:nodetypes="szsscss"
         inkscape:transform-center-x="-3.0168147"
         inkscape:transform-center-y="1.6761015" />
      <path
         id="path34"
         style="font-variation-settings:normal;vector-effect:none;fill:#f0cece;fill-opacity:1;stroke-width:0.0139991px;stroke-linecap:butt;stroke-linejoin:miter;stroke-miterlimit:4;stroke-dasharray:none;stroke-dashoffset:0;stroke-opacity:1;-inkscape-stroke:none;paint-order:stroke fill markers;stop-color:#000000"
         d="m 84.18226,26.088904 c 0.123545,-0.953167 1.424655,-2.568967 2.262786,-2.436295 0.838138,0.132632 1.567972,2.06975 1.399706,3.016049 -0.144663,0.813315 -0.600614,1.358481 -1.442563,1.570206 -0.352997,0.08877 -0.469034,-0.480732 -0.596058,-0.550021 -0.143287,0.02021 -0.382361,0.553203 -0.729722,0.343062 -0.73539,-0.444897 -0.999637,-1.129378 -0.894149,-1.943001 z"
         sodipodi:nodetypes="szsscss"
         inkscape:transform-center-x="0.58356008"
         inkscape:transform-center-y="3.2671796" />
      <path
         id="path35"
         style="font-variation-settings:normal;vector-effect:none;fill:#f0cece;fill-opacity:1;stroke-width:0.0139991px;stroke-linecap:butt;stroke-linejoin:miter;stroke-miterlimit:4;stroke-dasharray:none;stroke-dashoffset:0;stroke-opacity:1;-inkscape-stroke:none;paint-order:stroke fill markers;stop-color:#000000"
         d="m 82.6123,21.424633 c 0.945168,-0.174495 2.881949,0.568858 3.012504,1.407321 0.130594,0.838458 -1.489668,2.126803 -2.442003,2.256624 -0.818516,0.111535 -1.477178,-0.155414 -1.93673,-0.891972 -0.192669,-0.308811 0.313869,-0.593787 0.340899,-0.735933 -0.06315,-0.130198 -0.643761,-0.194437 -0.550179,-0.589482 0.198134,-0.836346 0.768705,-1.297637 1.575509,-1.446558 z"
         sodipodi:nodetypes="szsscss"
         inkscape:transform-center-x="3.2686676"
         inkscape:transform-center-y="0.5765728" />
      <path
         id="path36"
         style="font-variation-settings:normal;vector-effect:none;fill:#f0cece;fill-opacity:1;stroke-width:0.0139991px;stroke-linecap:butt;stroke-linejoin:miter;stroke-miterlimit:4;stroke-dasharray:none;stroke-dashoffset:0;stroke-opacity:1;-inkscape-stroke:none;paint-order:stroke fill markers;stop-color:#000000"
         d="m 86.559552,18.500943 c 0.458071,0.844962 0.349706,2.916666 -0.407357,3.299969 -0.757045,0.383339 -2.483082,-0.759413 -2.900881,-1.624999 -0.35905,-0.74397 -0.30874,-1.452889 0.249725,-2.117586 0.234142,-0.278684 0.661721,0.114982 0.805261,0.09676 0.104309,-0.100296 -0.01405,-0.672336 0.390581,-0.70543 0.856636,-0.07005 1.471686,0.330013 1.862671,1.051291 z"
         sodipodi:nodetypes="szsscss"
         inkscape:transform-center-x="1.6705799"
         inkscape:transform-center-y="-3.0199293" />
    </g>
  </g>
</svg>
