<svg xmlns="http://www.w3.org/2000/svg" xmlns:svg="http://www.w3.org/2000/svg" xmlns:xlink="http://www.w3.org/1999/xlink" width="256" height="256">
<g>
<defs>
<linearGradient id="basea" x1="48.338" x2="78.104" y1="13.229" y2="122.24" gradientTransform="translate(-31.067 -31.068)scale(2.3484)" gradientUnits="userSpaceOnUse">
<stop offset="0" stop-color="#a53d6b"/>
<stop offset="1" stop-color="#652945"/>
</linearGradient>
</defs>
<path fill="url(#basea)" d="M112 0v.012c-21.198.015-43.706.074-51.98.35-14.896.494-29.889 3.456-43.186 16.47C3.82 30.13.858 45.122.363 60.018.088 68.293.029 90.801.013 112H.002v32h.011c.016 21.2.075 43.708.35 51.982.495 14.896 3.457 29.89 16.471 43.186 13.297 13.014 28.29 15.976 43.186 16.471 8.274.275 30.782.334 51.98.35V256h32.002v-.012c21.198-.016 43.706-.075 51.98-.35 14.896-.495 29.889-3.456 43.186-16.47 13.014-13.298 15.976-28.29 16.471-43.187.275-8.274.334-30.783.35-51.982H256v-32h-.011c-.016-21.199-.075-43.708-.35-51.982-.495-14.896-3.456-29.889-16.471-43.186C225.871 3.818 210.878.856 195.982.362c-8.274-.276-30.782-.335-51.98-.35V0z" style="-inkscape-stroke:none;font-variation-settings:normal;paint-order:stroke fill markers"/>
</g>
<g style="font-variation-settings:normal;display:inline;opacity:1;vector-effect:none;fill:#f0cece;fill-opacity:1;stroke-width:.0023613px;stroke-linecap:butt;stroke-linejoin:miter;stroke-miterlimit:4;stroke-dasharray:none;stroke-dashoffset:0;stroke-opacity:1;-inkscape-stroke:none;paint-order:stroke fill markers;stop-color:#000;stop-opacity:1">
<path d="M91.87 20.03c-.66.699-2.663 1.241-3.263.641s-.051-2.596.641-3.262c.595-.573 1.285-.746 2.09-.423.338.136.097.665.159.796.128.068.634-.223.792.151.333.792.145 1.501-.419 2.098m-2.776 5.999c-.868-.411-2.003-2.148-1.618-2.904.386-.756 2.453-.852 3.301-.4.73.39 1.107.992 1.048 1.858-.025.363-.602.297-.707.397-.026.142.407.534.1.8-.65.562-1.383.602-2.124.25m-4.912.058c.124-.953 1.425-2.57 2.263-2.436.838.132 1.568 2.07 1.4 3.016-.145.813-.6 1.358-1.443 1.57-.353.089-.469-.48-.596-.55-.143.02-.382.553-.73.343-.735-.445-1-1.13-.894-1.943m-1.57-4.664c.945-.175 2.882.568 3.013 1.407.13.838-1.49 2.127-2.442 2.257-.819.111-1.477-.156-1.937-.892-.193-.31.314-.594.341-.736-.063-.13-.644-.195-.55-.59.198-.836.768-1.297 1.575-1.446M86.56 18.5c.458.846.35 2.918-.408 3.3-.757.384-2.483-.759-2.9-1.624-.36-.744-.31-1.453.249-2.118.234-.278.662.115.805.097.105-.1-.014-.672.39-.705.858-.07 1.473.33 1.864 1.05" style="font-variation-settings:normal;vector-effect:none;fill:#f0cece;fill-opacity:1;stroke-width:.0023613px;stroke-linecap:butt;stroke-linejoin:miter;stroke-miterlimit:4;stroke-dasharray:none;stroke-dashoffset:0;stroke-opacity:1;-inkscape-stroke:none;paint-order:stroke fill markers;stop-color:#000;stop-opacity:1" transform="matrix(18.20215 0 0 18.20817 -1450.858 -282.348)"/>
</g>
</svg>
